# xmcd
#
# Track frame offsets:
#	150
#	13313
#	26575
#	42787
#	55496
#	70243
#	89844
#	103546
#	116572
#	135758
#	149048
#	168564
#	189159
#	201646
#	214836
#	230000
#	242231
#	258299
#	269201
#	283945
#	297907
#	311416
#
# Disc length: 4340 seconds
#
# Revision: 1
# Processed by: cddbd v1.5.2PL0 Copyright (c) Steve Scherf et al.
# Submitted via: audiograbber 1.83.01
#
DISCID=6310f216
DTITLE=JOSÉ ORLANDO - SÓ SUCESSOS
DYEAR=2015
DGENRE=BREGA
TTITLE0=POURT-POURRI-A
TTITLE1=BRIGUINHAS DE CIÚMES
TTITLE2=POURT-POURRI-B
TTITLE3=DEVASSA
TTITLE4=AMOR MARAVILHOSO
TTITLE5=POURT-POURRI-C
TTITLE6=EU VOU PEDIR A LUA
TTITLE7=PISTOLEIRO DO AMOR
TTITLE8=POURT-POURRI-D
TTITLE9=TÍTULOS ROMÂTICOS
TTITLE10=POURT-POURRI-E
TTITLE11=POURT-POURRI-F
TTITLE12=O ANDARILHO
TTITLE13=GUERRA E PAZ
TTITLE14=QUEREM ME ROUBAR
TTITLE15=LOURINHA
TTITLE16=RUMBA LOUCA
TTITLE17=SE ELA ME AMA
TTITLE18=TENHO PENA DE VOCÊ
TTITLE19=AMERICANA
TTITLE20=BEIJO DE CHOCOLATE
TTITLE21=PARABÉNS PRA VOCÊ
EXTD=
EXTT0=
EXTT1=
EXTT2=
EXTT3=
EXTT4=
EXTT5=
EXTT6=
EXTT7=
EXTT8=
EXTT9=
EXTT10=
EXTT11=
EXTT12=
EXTT13=
EXTT14=
EXTT15=
EXTT16=
EXTT17=
EXTT18=
EXTT19=
EXTT20=
EXTT21=
PLAYORDER=
